<svg width="24" height="24" viewBox="0 0 24 24" fill="none" xmlns="http://www.w3.org/2000/svg">
<g clip-path="url(#clip0_2_430)">
<path d="M16.9455 13.764C17.2803 12.8277 17.3423 11.8157 17.1243 10.8456C16.9063 9.87552 16.4174 8.98727 15.7143 8.28421C15.0113 7.58115 14.123 7.09219 13.1529 6.87423C12.1828 6.65626 11.1708 6.71825 10.2345 7.05298L11.469 8.28748C12.0455 8.20497 12.6333 8.25785 13.1857 8.44193C13.7382 8.626 14.2402 8.93622 14.652 9.348C15.0638 9.75978 15.374 10.2618 15.5581 10.8143C15.7422 11.3668 15.7951 11.9545 15.7125 12.531L16.9455 13.764ZM12.531 15.7125L13.764 16.9455C12.8278 17.2802 11.8158 17.3422 10.8457 17.1242C9.87558 16.9063 8.98733 16.4173 8.28427 15.7143C7.58121 15.0112 7.09225 14.1229 6.87429 13.1529C6.65632 12.1828 6.71831 11.1707 7.05304 10.2345L8.28754 11.469C8.20503 12.0454 8.25791 12.6332 8.44199 13.1857C8.62606 13.7382 8.93628 14.2402 9.34806 14.652C9.75984 15.0637 10.2619 15.374 10.8143 15.558C11.3668 15.7421 11.9546 15.795 12.531 15.7125V15.7125Z" fill="#A4AAB8"/>
<path d="M10.938 17.1425C11.9116 17.3441 12.9225 17.265 13.8529 16.9145C14.7834 16.564 15.5952 15.9565 16.1939 15.1627C16.7926 14.3689 17.1535 13.4214 17.2348 12.4304C17.316 11.4395 17.1141 10.4458 16.6527 9.5651L15.6015 10.959C15.7632 11.5184 15.7924 12.1078 15.6868 12.6805C15.5812 13.2532 15.3436 13.7934 14.993 14.2583C14.6423 14.7233 14.1882 15.1002 13.6666 15.3591C13.145 15.6181 12.5703 15.752 11.988 15.7503L10.938 17.1425ZM8.39572 13.0411L7.34577 14.4333C6.88435 13.5526 6.68251 12.5589 6.76374 11.568C6.84497 10.577 7.20592 9.62952 7.80461 8.8357C8.4033 8.04187 9.2151 7.43437 10.1456 7.08389C11.076 6.7334 12.0869 6.65434 13.0605 6.85591L12.0093 8.24978C11.4269 8.24807 10.8522 8.38201 10.3306 8.64098C9.80901 8.89994 9.3549 9.27683 9.00425 9.74177C8.6536 10.2067 8.41606 10.7469 8.31043 11.3196C8.20481 11.8923 8.23401 12.4817 8.39572 13.0411V13.0411Z" fill="#A4AAB8"/>
<path d="M23.2784 11.6573C17.0043 22.2954 7.21064 22.2141 0.5984 11.4691" stroke="#A4AAB8" stroke-width="1.6"/>
<path d="M0.932253 12.0156C7.36738 1.4582 17.202 1.66415 23.7071 12.4925" stroke="#A4AAB8" stroke-width="1.6"/>
</g>
<defs>
<clipPath id="clip0_2_430">
<rect width="24" height="24" fill="white"/>
</clipPath>
</defs>
</svg>
