<svg width="22" height="18" viewBox="0 0 22 18" fill="none" xmlns="http://www.w3.org/2000/svg">
<path d="M0 9C0 9 4.125 1.4375 11 1.4375C17.875 1.4375 22 9 22 9C22 9 17.875 16.5625 11 16.5625C4.125 16.5625 0 9 0 9ZM11 13.8125C12.2764 13.8125 13.5004 13.3055 14.403 12.403C15.3055 11.5004 15.8125 10.2764 15.8125 9C15.8125 7.72365 15.3055 6.49957 14.403 5.59705C13.5004 4.69453 12.2764 4.1875 11 4.1875C9.72365 4.1875 8.49957 4.69453 7.59705 5.59705C6.69453 6.49957 6.1875 7.72365 6.1875 9C6.1875 10.2764 6.69453 11.5004 7.59705 12.403C8.49957 13.3055 9.72365 13.8125 11 13.8125V13.8125Z" fill="#C6CAD8"/>
<line x1="1.66436" y1="1.25259" x2="19.6644" y2="17.2526" stroke="#C6CAD8" stroke-width="2"/>
</svg>
